<?xml version="1.0" standalone="no"?>
<!DOCTYPE svg PUBLIC "-//W3C//DTD SVG 20010904//EN"
 "http://www.w3.org/TR/2001/REC-SVG-20010904/DTD/svg10.dtd">
<svg version="1.0" xmlns="http://www.w3.org/2000/svg"
 width="616.000000pt" height="573.000000pt" viewBox="0 0 616.000000 573.000000"
 preserveAspectRatio="xMidYMid meet">

<g transform="translate(0.000000,573.000000) scale(0.100000,-0.100000)"
fill="#000000" stroke="none">
<path d="M770 3890 l0 -59 138 -3 137 -3 3 -1132 2 -1133 -180 0 -180 0 0 -65
0 -65 1000 0 1000 0 -2 383 -3 382 -62 3 -62 3 -6 -48 c-24 -192 -58 -305
-116 -392 -45 -67 -91 -108 -166 -145 -97 -49 -153 -56 -481 -56 l-302 0 2
1133 3 1132 148 3 147 3 0 59 0 60 -510 0 -510 0 0 -60z"/>
<path d="M3965 3904 c-376 -38 -504 -74 -652 -186 -114 -86 -222 -261 -262
-423 -86 -351 -89 -898 -5 -1230 74 -296 255 -494 516 -565 339 -92 997 -92
1336 0 253 69 445 280 512 562 47 199 55 288 55 613 0 325 -8 418 -55 610 -25
103 -105 264 -167 337 -179 210 -404 276 -963 283 -151 1 -293 1 -315 -1z
m293 -571 l3 -92 270 -3 271 -3 24 -28 c32 -38 32 -90 -1 -122 -47 -48 -135
-21 -150 45 l-7 30 -204 0 -204 0 2 -517 3 -518 135 -5 c119 -4 135 -7 138
-23 9 -45 -3 -47 -309 -47 -248 0 -290 2 -303 16 -12 12 -13 20 -6 35 10 17
22 19 140 19 l130 0 0 520 0 520 -205 0 -205 0 0 -25 c0 -38 -42 -75 -85 -75
-80 0 -116 92 -59 150 l24 25 265 3 265 3 0 82 c0 88 9 110 45 105 18 -3 20
-12 23 -95z m-436 -543 c79 -173 97 -222 93 -249 -18 -132 -200 -205 -340
-136 -62 30 -90 61 -107 116 -11 37 -8 44 45 156 153 325 158 334 185 331 22
-3 37 -28 124 -218z m1069 0 c111 -238 115 -259 65 -325 -88 -115 -314 -113
-391 4 -46 69 -45 77 59 298 123 263 113 245 142 241 23 -3 37 -28 125 -218z
m-221 -795 c6 -8 10 -22 8 -32 -3 -17 -28 -18 -448 -18 l-445 0 -3 24 c-2 13
2 28 10 32 7 5 205 9 439 9 361 0 428 -2 439 -15z"/>
<path d="M3628 2757 c-31 -67 -60 -130 -64 -139 -6 -17 4 -18 129 -18 l136 0
-66 140 c-37 77 -69 140 -72 140 -3 0 -32 -55 -63 -123z"/>
<path d="M4696 2753 c-32 -70 -61 -133 -63 -140 -4 -10 25 -13 130 -13 l136 0
-66 140 c-37 77 -69 140 -72 140 -4 0 -33 -57 -65 -127z"/>
</g>
</svg>
